<?xml version="1.0" standalone="no"?>
<!DOCTYPE svg PUBLIC "-//W3C//DTD SVG 20010904//EN"
 "http://www.w3.org/TR/2001/REC-SVG-20010904/DTD/svg10.dtd">
<svg version="1.0" xmlns="http://www.w3.org/2000/svg"
 width="850.000000pt" height="502.000000pt" viewBox="0 0 850.000000 502.000000"
 preserveAspectRatio="xMidYMid meet">

<g transform="translate(0.000000,502.000000) scale(0.100000,-0.100000)"
fill="#000000" stroke="none">
<path d="M4879 4039 c-25 -4 -59 -14 -75 -22 -43 -23 -101 -86 -120 -132 -23
-55 -21 -150 3 -206 24 -54 97 -122 148 -139 51 -17 130 -17 179 -1 44 15 120
81 141 122 100 193 -58 410 -276 378z"/>
<path d="M2920 3800 l0 -200 170 0 170 0 0 -1185 0 -1185 -170 0 -170 0 0
-200 0 -200 580 0 580 0 0 200 0 200 -170 0 -170 0 0 1185 0 1185 170 0 170 0
0 200 0 200 -580 0 -580 0 0 -200z"/>
<path d="M4380 2845 l0 -195 170 0 170 0 0 -715 0 -715 -170 0 -170 0 0 -195
0 -195 560 0 560 0 0 195 0 195 -170 0 -170 0 0 910 0 910 -390 0 -390 0 0
-195z"/>
</g>
</svg>
