<?xml version="1.0" standalone="no"?>
<!DOCTYPE svg PUBLIC "-//W3C//DTD SVG 20010904//EN"
 "http://www.w3.org/TR/2001/REC-SVG-20010904/DTD/svg10.dtd">
<svg version="1.0" xmlns="http://www.w3.org/2000/svg"
 width="850.000000pt" height="502.000000pt" viewBox="0 0 850.000000 502.000000"
 preserveAspectRatio="xMidYMid meet">

<g transform="translate(0.000000,502.000000) scale(0.100000,-0.100000)"
fill="#000000" stroke="none">
<path d="M5454 4541 c-58 -15 -121 -51 -166 -95 -119 -118 -76 -287 93 -370
181 -88 433 -26 510 126 22 44 27 125 10 170 -19 49 -88 114 -154 144 -53 24
-77 28 -162 31 -55 1 -114 -2 -131 -6z"/>
<path d="M2510 4310 l0 -200 420 0 420 0 0 -1422 c0 -871 -4 -1460 -10 -1518
-30 -288 -132 -370 -454 -370 -116 1 -278 15 -403 36 l-43 7 0 -222 0 -221 23
-5 c230 -52 605 -60 805 -17 309 67 549 215 633 389 40 83 67 219 79 388 6 79
10 750 10 1547 l0 1408 383 2 382 3 3 198 2 197 -1125 0 -1125 0 0 -200z"/>
<path d="M4847 3543 c-4 -3 -7 -91 -7 -195 l0 -188 231 0 230 0 -4 -1007 c-4
-1048 -7 -1125 -47 -1202 -38 -74 -114 -126 -233 -159 -51 -14 -104 -17 -294
-17 l-233 1 0 -192 0 -191 100 -12 c203 -23 490 -11 671 29 253 55 442 183
526 358 80 166 92 407 93 1800 l0 982 -513 0 c-283 0 -517 -3 -520 -7z"/>
</g>
</svg>
